PathFileType  4	(X/Y/Z) C:\Users\antoi\Documents\MyRepositories\mobilecap\ResultsAnalysis
DataRate	CameraRate	NumFrames	NumMarkers	Units	OrigDataRate	OrigDataStartFrame	OrigNumFrames
100.0	100.0	7	51	mm	100.0	17	133
Frame#	Time	r_knee			r_shank_antsup			r_ankle			r_calc			r_5meta			r_toe			L_knee			L_shank_antsup			L_ankle			L_calc			L_5meta			L_toe			r_sh2			r_sh3			r_sh4			L_sh2			L_sh3			r_thigh1			r_thigh2			r_thigh3			r_thigh4			r_thigh5			L_thigh1			L_thigh2			L_thigh3			L_thigh4			r.ASIS			r.PSIS			L.ASIS			L.PSIS			C7			R_Shoulder			L_Shoulder			R_Sternum			L_Sternum			R_humerus			R_elbow_med			R_elbow_lat			R_forearm			R_wrist_radius			R_wrist_ulna			L_humerus			L_elbow_med			L_elbow_lat			L_forearm			L_wrist_radius			L_wrist_ulna			R_HJC			L_HJC			R_HJC_reg			L_HJC_reg			
		X1	Y1	Z1	X2	Y2	Z2	X3	Y3	Z3	X4	Y4	Z4	X5	Y5	Z5	X6	Y6	Z6	X7	Y7	Z7	X8	Y8	Z8	X9	Y9	Z9	X10	Y10	Z10	X11	Y11	Z11	X12	Y12	Z12	X13	Y13	Z13	X14	Y14	Z14	X15	Y15	Z15	X16	Y16	Z16	X17	Y17	Z17	X18	Y18	Z18	X19	Y19	Z19	X20	Y20	Z20	X21	Y21	Z21	X22	Y22	Z22	X23	Y23	Z23	X24	Y24	Z24	X25	Y25	Z25	X26	Y26	Z26	X27	Y27	Z27	X28	Y28	Z28	X29	Y29	Z29	X30	Y30	Z30	X31	Y31	Z31	X32	Y32	Z32	X33	Y33	Z33	X34	Y34	Z34	X35	Y35	Z35	X36	Y36	Z36	X37	Y37	Z37	X38	Y38	Z38	X39	Y39	Z39	X40	Y40	Z40	X41	Y41	Z41	X42	Y42	Z42	X43	Y43	Z43	X44	Y44	Z44	X45	Y45	Z45	X46	Y46	Z46	X47	Y47	Z47	X48	Y48	Z48	X49	Y49	Z49	X50	Y50	Z50	X51	Y51	Z51	

17	0.16000000	153.86517	486.76755	-66.34497	200.12992	448.53075	-82.96643	172.92181	88.00790	-115.04789	117.69047	57.39732	-167.16059	308.20982	35.65414	-82.74738	345.53381	65.04891	-137.82276	-133.96700	450.50701	-351.64014	-167.38624	367.74077	-367.13691	-434.35609	187.29848	-313.75819	-502.40260	208.29501	-260.77438	-402.00760	53.05329	-323.99735	-354.58571	46.39212	-274.44603	214.02739	336.26777	-101.06666	141.16709	431.26205	-36.12429	156.72035	316.58975	-41.44449	-220.61826	440.03791	-369.03727	-312.99159	359.91207	-362.13302	105.84179	785.62804	-121.43852	159.27185	689.79649	-120.20438	165.60721	666.71556	-56.46335	70.52897	766.36982	-17.55043	121.28407	665.09921	-20.27776	-34.99089	759.84585	-367.42417	-55.97396	619.01094	-374.13039	-146.60426	774.34886	-353.99179	-163.98795	639.84836	-336.79362	63.65419	925.04416	-84.75215	-141.18607	954.83733	-126.27382	26.79875	900.09424	-314.73230	-157.08478	952.38158	-223.18200	-86.80458	1425.13729	-203.70184	-34.23715	1388.03222	-41.72180	-32.90690	1371.63719	-360.22990	20.87040	1320.97721	-184.58380	21.73033	1317.15058	-222.57408	-93.73083	1157.16624	46.14758	-172.71962	1085.28841	9.28798	-147.71587	1081.51925	66.41356	-135.02077	942.33582	98.68523	-131.58149	835.42719	92.99648	-169.15628	846.30198	119.60289	3.29084	1151.34505	-441.88602	-13.87060	1031.55725	-402.24131	6.18742	1045.37239	-459.26871	144.92705	994.36411	-454.09143	240.78524	958.54634	-416.28218	226.36870	922.98358	-438.71540	-17.09999	841.94416	-98.64356	-60.02510	834.56868	-284.25050	-10.06192	843.83659	-103.15865	-35.08649	839.97322	-255.68266	
18	0.17000000	164.83538	487.80365	-65.33822	210.35528	448.26757	-82.28700	173.77131	88.05157	-115.05921	117.75649	57.60776	-166.99901	308.54705	35.34901	-82.79553	345.87955	63.85000	-138.23554	-106.22035	448.94312	-352.53763	-141.13378	367.26334	-367.14585	-414.46440	198.84160	-314.91356	-479.53995	225.73123	-262.05942	-394.14991	61.01496	-324.82376	-347.73317	49.80023	-275.25004	221.40500	335.79096	-100.59102	151.30142	432.42271	-35.05706	163.89231	317.39785	-40.56933	-191.69460	441.22744	-370.17833	-286.61584	364.32662	-362.79953	118.78830	787.30582	-119.63703	172.17570	691.31045	-118.46835	178.37218	668.17158	-54.68839	84.03488	768.37031	-15.71599	133.87351	666.71816	-18.60220	-17.36112	760.37517	-365.37269	-34.30745	619.00332	-373.45730	-129.33009	771.41651	-351.87845	-142.74853	636.34311	-336.07075	77.50242	928.09397	-82.95640	-127.52027	957.14570	-125.52024	41.11992	901.34356	-312.63272	-143.23899	953.67690	-222.50135	-72.57100	1427.09460	-201.67428	-19.26644	1389.74404	-39.96724	-19.06576	1373.80399	-358.39278	35.31871	1322.87614	-182.92740	35.84197	1318.85855	-221.11682	-75.09078	1157.84408	47.59577	-153.37437	1084.97143	11.08058	-127.82309	1081.32766	68.02415	-112.58688	942.31392	99.72321	-107.21618	835.48639	93.57434	-144.70726	845.61740	120.48488	13.05264	1152.58732	-440.22728	-5.46472	1033.23124	-400.15484	14.39968	1046.66844	-457.35092	151.94506	992.32461	-453.20012	247.09736	954.05801	-416.02252	231.81653	919.05388	-438.43180	-3.20989	844.73792	-96.45338	-45.51010	835.72903	-282.14469	3.92658	846.93722	-100.67884	-20.77634	841.48387	-253.09462	
19	0.18000000	174.15935	488.28043	-64.24598	219.12291	447.69080	-81.38475	174.28455	88.07019	-115.05908	117.71049	57.71285	-166.87919	308.73256	35.32799	-82.82658	346.00346	63.17949	-138.53811	-77.68751	448.02075	-353.40375	-114.07846	367.32252	-366.78393	-392.95471	210.51243	-315.73342	-454.67450	242.43062	-262.76185	-383.80865	70.28960	-325.78594	-338.55689	54.51852	-276.40037	227.69350	335.09482	-99.96803	159.83681	433.10604	-34.11126	169.76508	317.80341	-39.82690	-162.03527	442.68117	-371.17987	-259.20932	368.83787	-363.30900	132.10951	788.64291	-117.05523	184.64187	692.00614	-116.03031	189.87191	668.53055	-52.23036	96.55757	769.71563	-13.59220	144.92176	667.41183	-16.63355	0.01769	761.31193	-363.47428	-12.61817	619.52945	-372.79562	-112.23365	768.73009	-349.74761	-121.42949	633.22423	-335.31736	91.06547	930.99717	-81.26525	-114.03843	959.59361	-124.63318	55.01147	902.87295	-310.77776	-129.70418	955.24145	-221.65715	-58.50327	1429.21322	-199.67706	-4.29445	1391.65567	-38.36679	-5.53516	1376.22432	-356.63213	49.52763	1324.91728	-181.43099	49.73036	1320.74174	-219.81951	-56.34985	1158.85286	49.06191	-133.99172	1084.96703	13.06064	-107.76626	1081.45033	69.76716	-89.59549	942.62762	100.72938	-82.05288	835.99309	94.03369	-119.40945	845.21759	121.32670	22.62854	1154.09894	-438.59110	2.62278	1035.31467	-398.04492	22.29420	1048.24855	-455.40741	158.40604	990.22586	-452.35218	252.63827	949.16968	-415.84886	236.40012	914.81177	-438.25142	10.37292	847.48431	-94.47204	-31.48608	837.20583	-280.20995	17.60059	850.03697	-98.35423	-6.99490	843.19987	-250.69434	
20	0.19000000	181.91295	488.28622	-63.11979	226.45224	446.87171	-80.24803	174.57902	88.07388	-115.04627	117.63060	57.77489	-166.79438	308.84006	35.40337	-82.85135	346.03265	62.81295	-138.74070	-48.74050	447.95025	-354.08612	-86.52000	368.11143	-366.06322	-370.12345	221.96073	-316.18131	-428.49709	257.72116	-262.76395	-370.46536	80.41775	-326.93133	-326.33757	60.44419	-278.00196	232.92970	334.22885	-99.16479	166.72248	433.38784	-33.33329	174.34488	317.87594	-39.24343	-131.98199	444.57539	-371.86260	-231.18058	373.61375	-363.59572	145.61770	789.64001	-113.97180	196.50297	691.96385	-113.14375	200.18220	667.95854	-49.36785	108.20710	770.54934	-11.29960	154.61910	667.37942	-14.51351	17.06610	762.74197	-361.71527	8.90601	620.68244	-372.08219	-95.35664	766.49018	-347.60586	-100.15781	630.73439	-334.40540	104.34087	933.68908	-79.73831	-100.73417	962.17004	-123.58719	68.47701	904.68026	-309.20173	-116.46052	957.02932	-220.61199	-44.59507	1431.46499	-197.70816	10.65285	1393.70238	-36.91671	7.63651	1378.84035	-354.99038	63.46414	1327.05677	-180.11383	63.39785	1322.80069	-218.67107	-37.53286	1160.13360	50.52847	-114.61044	1085.20959	15.24096	-87.59422	1081.84323	71.65008	-66.09022	943.25204	101.70208	-56.14596	836.93109	94.38478	-93.33190	845.09627	122.12635	32.06323	1155.83531	-437.00750	10.44673	1037.72796	-395.94559	29.94550	1050.06478	-453.44876	164.36078	988.05546	-451.56333	257.46573	943.92719	-415.77027	240.16112	910.28220	-438.17758	23.67158	850.13027	-92.73088	-17.96577	838.98642	-278.47682	30.93009	853.17017	-96.22013	6.24951	845.09749	-248.49872	
21	0.20000000	188.30090	487.99567	-62.00066	232.46029	445.93814	-78.88094	174.74190	88.07828	-115.01440	117.55523	57.83762	-166.73212	308.91078	35.47002	-82.86929	346.03787	62.60467	-138.85621	-19.72695	448.87680	-354.47548	-58.69624	369.77074	-365.05038	-346.19293	232.79433	-316.25120	-401.67342	271.02392	-262.05878	-353.70198	90.80974	-328.31864	-310.45538	67.30201	-280.09848	237.19398	333.29284	-98.14587	172.04377	433.42633	-32.72748	177.69813	317.76539	-38.79733	-101.84855	447.06377	-372.09298	-202.88555	378.78457	-363.61084	158.97166	790.37393	-110.74064	207.64485	691.42561	-110.13455	209.48934	666.81244	-46.42799	119.11624	771.10476	-8.96598	163.28256	666.95914	-12.40499	33.76262	764.73584	-360.07240	30.14745	622.53911	-371.27999	-78.69526	764.85924	-345.47724	-79.00291	629.04022	-333.24535	117.33257	936.18805	-78.39263	-87.62387	964.87258	-122.39530	81.54725	906.76630	-307.89193	-103.48428	959.00766	-219.37275	-30.85383	1433.84692	-195.78696	25.52901	1395.84136	-35.60973	20.43137	1381.60406	-353.50574	77.10712	1329.27198	-178.98760	76.84225	1325.03476	-217.66222	-18.65966	1161.64784	51.96682	-95.24883	1085.64116	17.61825	-67.33563	1082.47332	73.66289	-42.11786	944.17992	102.63467	-29.56215	838.28588	94.63151	-66.54294	845.26651	122.87995	41.36779	1157.75933	-435.49940	18.06402	1040.38677	-393.88146	37.43074	1052.07858	-451.48410	169.85258	985.81123	-450.84672	261.62742	938.37807	-415.79355	243.14387	905.50533	-438.21780	36.70777	852.68274	-91.22424	-4.91469	841.05530	-276.94696	43.90134	856.38027	-94.28847	19.00676	847.16957	-246.50966	
22	0.21000000	193.60144	487.60658	-60.90858	237.34596	445.03470	-77.32208	174.83601	88.09977	-114.95366	117.49600	57.92948	-166.67869	308.96414	35.48593	-82.87600	346.05078	62.47414	-138.89953	9.06304	450.86569	-354.51715	-30.77659	372.37609	-363.84571	-321.28309	242.62670	-315.98188	-374.69217	281.94156	-260.78316	-333.30505	100.83062	-329.98662	-290.55694	74.65651	-282.64018	240.61416	332.40368	-96.90885	176.03631	433.40145	-32.24884	180.00330	317.64294	-38.42518	-71.92350	450.25915	-371.78534	-174.58960	384.38397	-363.30461	171.80836	790.95244	-107.69790	218.02966	690.67626	-107.32016	218.02638	665.49085	-43.70257	129.41925	771.61411	-6.69841	171.26691	666.49901	-10.44768	50.13830	767.33351	-358.52377	51.07118	625.15292	-370.38829	-62.21102	763.92929	-343.40050	-57.98122	628.20904	-331.81146	130.04562	938.56796	-77.19521	-74.73471	967.69618	-121.10225	94.28441	909.13086	-306.79164	-90.74580	961.16395	-217.98797	-17.29400	1436.37184	-193.94780	40.26964	1398.05820	-34.43784	32.86556	1384.47793	-352.20429	90.45647	1331.56195	-178.05316	90.06135	1327.44066	-216.78713	0.24633	1163.38425	53.34349	-75.90771	1086.22271	20.17012	-47.00171	1083.32677	75.77677	-17.73296	945.42893	103.51585	-2.38066	840.06086	94.77000	-39.11083	845.76701	123.57993	50.54036	1159.83893	-434.07602	25.53688	1043.21143	-391.86471	44.81874	1054.26025	-449.52308	174.91523	983.50706	-450.21153	265.14740	932.57371	-415.92651	245.38844	900.53959	-438.38414	49.49443	855.18763	-89.91540	7.74512	843.39686	-275.59948	56.52109	859.68742	-92.55010	31.37394	849.42296	-244.71988	
23	0.22000000	198.11339	487.28265	-59.84348	241.36230	444.28150	-75.65344	174.90576	88.15095	-114.85465	117.45288	58.06548	-166.62137	309.00793	35.44728	-82.86826	346.08089	62.38317	-138.88615	37.41424	453.90235	-354.20873	-2.87233	375.92854	-362.55401	-295.43238	251.12075	-315.46355	-347.78518	290.29862	-259.20044	-309.34202	109.88582	-331.92162	-266.66331	81.96597	-285.47957	243.35958	331.66096	-95.50697	179.05682	433.45791	-31.81539	181.55546	317.64414	-38.04463	-42.46241	454.20164	-370.90567	-146.45264	390.30213	-362.62772	183.85665	791.46837	-105.08761	227.68664	689.93870	-104.93541	226.01304	664.30468	-41.38467	139.24763	772.24425	-4.57161	178.88451	666.25347	-8.72473	66.25218	770.53857	-357.05695	71.71283	628.54626	-369.43651	-45.85103	763.70977	-341.42543	-37.07737	628.21656	-330.14767	142.47060	940.91456	-76.07202	-62.09038	970.62502	-119.76903	106.78170	911.77084	-305.81501	-78.20912	963.50377	-216.53521	-3.92280	1439.05298	-192.22563	54.79976	1400.36693	-33.39326	44.98481	1387.43357	-351.09373	103.53483	1333.94315	-177.29872	103.05947	1330.01420	-216.03996	19.15244	1165.35448	54.62787	-56.57493	1086.93996	22.85538	-26.59292	1084.41131	77.94806	7.00214	947.04196	104.33029	25.30937	842.28897	94.78818	-11.10598	846.66341	124.21196	59.58770	1162.04362	-432.73026	32.92947	1046.13688	-389.89419	52.15982	1056.58791	-447.57561	179.57208	981.17440	-449.66209	268.02450	926.57377	-416.17935	246.92415	895.46244	-438.69249	62.02828	857.69760	-88.75187	20.12045	845.99822	-274.40553	68.80952	863.07329	-90.98192	43.46784	851.87303	-243.11692	
